<?xml version="1.0" encoding="UTF-8"?>
<svg id="Layer_2" data-name="Layer 2" xmlns="http://www.w3.org/2000/svg" viewBox="0 0 724.72 476.68">
  <defs>
    <style>
      .cls-1 {
        fill: #f2f2f2;
      }

      .cls-2 {
        fill: #043429;
      }

      .cls-3 {
        fill: #e6e6e6;
      }

      .cls-4 {
        fill: #fff;
      }

      .cls-5 {
        fill: #a0616a;
      }

      .cls-6 {
        fill: #ccc;
      }

      .cls-7 {
        fill: #0d3048;
      }
    </style>
  </defs>
  <g id="be4c2388-7845-4faa-a392-000b3bb95634">
    <path class="cls-1" d="m708.22,434.55H67.39c-9.11-.01-16.49-7.39-16.5-16.5V22.89c0-6.67,5.41-12.08,12.09-12.09h649.45c6.79,0,12.29,5.51,12.3,12.3v394.94c-.01,9.11-7.39,16.49-16.5,16.5Z"/>
    <path class="cls-4" d="m687.5,413.72H90.26c-8.76,0-15.88-6.67-15.88-14.87V54.74c0-6.08,5.28-11.03,11.77-11.03h605.27c6.6,0,11.96,5.03,11.96,11.21v343.92c0,8.2-7.12,14.87-15.88,14.87Z"/>
    <path class="cls-2" d="m724.49,24.95H50.65v-8.4C50.67,7.41,58.08,0,67.21,0h640.72c9.14,0,16.55,7.41,16.56,16.55v8.4Z"/>
    <circle class="cls-4" cx="80.75" cy="12.5" r="4.28"/>
    <circle class="cls-4" cx="97.01" cy="12.5" r="4.28"/>
    <circle class="cls-4" cx="113.27" cy="12.5" r="4.28"/>
    <rect class="cls-3" x="253.84" y="136.38" width="324" height="41.03" rx="20.51" ry="20.51"/>
    <rect class="cls-3" x="253.84" y="204.27" width="324" height="41.03" rx="20.51" ry="20.51"/>
    <rect class="cls-3" x="253.84" y="272.16" width="324" height="41.03" rx="20.51" ry="20.51"/>
    <circle class="cls-3" cx="217.84" cy="224.78" r="21"/>
    <path class="cls-4" d="m225.34,223.34l-6.38-6.86c-.58-.62-1.54-.65-2.16-.08-.03.03-.05.05-.08.08l-6.38,6.86c-.38.4-.35,1.04.05,1.41.4.38,1.04.35,1.41-.05,0,0,0,0,0,0l5.03-5.41v13.29c0,.55.45,1,1,1s1-.45,1-1v-13.29l5.03,5.42c.38.4,1.01.43,1.41.05.4-.38.43-1.01.05-1.41Z"/>
    <circle class="cls-3" cx="217.84" cy="292.67" r="21"/>
    <path class="cls-4" d="m225.34,291.23l-6.38-6.86c-.58-.62-1.54-.65-2.16-.08-.03.03-.05.05-.08.08l-6.38,6.86c-.38.4-.35,1.04.05,1.41.4.38,1.04.35,1.41-.05,0,0,0,0,0,0l5.03-5.41v13.29c0,.55.45,1,1,1s1-.45,1-1v-13.29l5.03,5.42c.38.4,1.01.43,1.41.05.4-.38.43-1.01.05-1.41Z"/>
    <circle class="cls-2" cx="217.84" cy="156.9" r="21"/>
    <path class="cls-4" d="m225.34,155.45l-6.38-6.86c-.58-.62-1.54-.65-2.16-.08-.03.03-.05.05-.08.08l-6.38,6.86c-.38.4-.35,1.04.05,1.41.4.38,1.04.35,1.41-.05,0,0,0,0,0,0l5.03-5.41v13.29c0,.55.45,1,1,1s1-.45,1-1v-13.29l5.03,5.42c.38.4,1.01.43,1.41.05.4-.38.43-1.01.05-1.41Z"/>
    <path class="cls-5" d="m198.15,156.33c-5.53-.53-10.44,3.52-10.97,9.05-.06.59-.06,1.18-.01,1.77l-32.71,14.39,15.6,10.07,28.67-15.21c5.52-.82,9.34-5.96,8.52-11.48-.68-4.62-4.44-8.17-9.1-8.59Z"/>
    <circle class="cls-5" cx="66.22" cy="113.82" r="24.56"/>
    <polygon class="cls-5" points="110.67 464.03 122.93 464.03 128.76 416.74 110.67 416.74 110.67 464.03"/>
    <path class="cls-7" d="m107.54,460.03h24.14s0,0,0,0c8.5,0,15.39,6.89,15.39,15.39h0v.5h-39.53s0-15.89,0-15.89Z"/>
    <polygon class="cls-5" points="59.67 464.03 71.93 464.03 77.76 416.74 59.67 416.74 59.67 464.03"/>
    <path class="cls-7" d="m56.54,460.03h24.14s0,0,0,0c8.5,0,15.39,6.89,15.39,15.39h0v.5h-39.53s0-15.89,0-15.89Z"/>
    <path class="cls-7" d="m57.27,452.83c-.96-.85-1.52-2.07-1.52-3.36l-.58-177.2,64.02-2.47.47-.02,10.53,106.29,1.32,67.71c.05,2.32-1.67,4.29-3.97,4.56l-15.54,1.83c-2.47.29-4.7-1.47-4.99-3.94-.01-.12-.02-.24-.03-.36l-2.77-71.94-13.43-44.78c-.35-.75-1.24-1.08-1.99-.73-.5.23-.83.73-.86,1.28l-5.23,117.76c-.11,2.18-1.77,3.97-3.94,4.24l-17.95,2.21c-1.28.16-2.56-.24-3.53-1.09h0Z"/>
    <path class="cls-2" d="m53.23,278.56l-18.97-77.03c-5.91-24,7.59-48.17,30.1-53.87,10.68-2.73,22.03-.71,31.11,5.55,10.32,7.14,17.12,18.34,18.68,30.79l12.39,91.19c.33,2.46-1.39,4.73-3.85,5.07-.16.02-.33.04-.49.04l-64.48,1.69s-.08,0-.12,0c-2.07,0-3.87-1.42-4.37-3.42Z"/>
    <path class="cls-2" d="m132.69,207.4l-48.09-23.36c-8.03-3.9-11.37-13.56-7.47-21.59,3.9-8.03,13.56-11.37,21.59-7.47.81.4,1.59.86,2.33,1.38l38.91,27.79,42-16.73c1.71-.69,3.67-.25,4.93,1.09l5.66,5.98c1.71,1.8,1.63,4.65-.17,6.36-.19.18-.4.35-.63.5l-37.6,24.67c-6.42,4.19-14.56,4.71-21.46,1.38h0Z"/>
    <path class="cls-7" d="m56.72,136.84c-1.93.04-3.84-.36-5.6-1.16-.78-.34-1.6-.63-2.38-.97-6.9-3.05-11.45-11.44-11.62-19.89-.04-8.32,3.34-16.3,9.36-22.05,5.62-5.17,12.83-8.28,20.44-8.82,7.95-.69,16.9,1.61,21.34,9.17,1.36,2.02,1.84,4.51,1.31,6.88-.2.72-.57,1.37-1.09,1.91-1.98,2.01-3.96.5-5.98.37-2.78-.18-5.28,2.38-6.17,5.39s-.5,6.32.22,9.39v.06c.65,2.77-1.09,5.53-3.86,6.17-.23.05-.46.09-.69.11-3.06.28-6.42.45-7.37,0-1.88-.88-4.4-.69-5.49,1.27-.35.72-.58,1.49-.69,2.29-.98,5.09-.75,4.79-1.73,9.89h0Z"/>
    <path class="cls-5" d="m49.77,319.44c3.32-4.46,2.39-10.75-2.06-14.07-.48-.35-.98-.66-1.51-.93l4.61-35.44-16.69,8.14-1.82,32.4c-2.16,5.15.26,11.07,5.41,13.23,4.31,1.81,9.29.43,12.06-3.34h0Z"/>
    <path class="cls-2" d="m51.69,297.85c-.3.11-.62.18-.94.22l-16.85,2.13c-2.47.31-4.72-1.43-5.03-3.9-.02-.19-.04-.38-.04-.57l.13-117.62c.04-7.03,5.2-12.99,12.16-14.03h0c7.76-1.12,14.95,4.26,16.07,12.02.16,1.12.19,2.26.08,3.39l-4.89,50.69,2.29,63.27c.08,1.97-1.14,3.76-3,4.41Z"/>
    <path class="cls-6" d="m207,476.68H1c-.55,0-1-.45-1-1s.45-1,1-1h206c.55,0,1,.45,1,1s-.45,1-1,1Z"/>
  </g>
</svg>