<?xml version="1.0" encoding="UTF-8"?>
<svg xmlns="http://www.w3.org/2000/svg" viewBox="0 0 500 372.61">
  <defs>
    <style>
      .cls-1 {
        opacity: .1;
      }

      .cls-1, .cls-2, .cls-3, .cls-4, .cls-5 {
        fill: #043429;
      }

      .cls-6 {
        isolation: isolate;
      }

      .cls-6, .cls-7 {
        fill: none;
      }

      .cls-8 {
        fill: #ebebeb;
      }

      .cls-9 {
        fill: #f0f0f0;
      }

      .cls-10, .cls-11 {
        fill: #e6e6e6;
      }

      .cls-12 {
        fill: #f5f5f5;
      }

      .cls-13 {
        fill: #ff5652;
      }

      .cls-14, .cls-15, .cls-16 {
        fill: #fff;
      }

      .cls-17 {
        fill: #ff8b7b;
      }

      .cls-18 {
        fill: #263238;
      }

      .cls-11 {
        mix-blend-mode: multiply;
        opacity: .7;
      }

      .cls-19, .cls-7 {
        opacity: .2;
      }

      .cls-15 {
        opacity: .6;
      }

      .cls-3 {
        opacity: .5;
      }

      .cls-16 {
        opacity: .8;
      }

      .cls-4 {
        opacity: .3;
      }

      .cls-5 {
        opacity: .4;
      }
    </style>
  </defs>
  <g class="cls-6">
    <g id="Layer_2" data-name="Layer 2">
      <g id="Background_Complete" data-name="Background Complete">
        <g>
          <rect class="cls-8" y="327.45" width="500" height=".25"/>
          <rect class="cls-8" x="102.02" y="343.54" width="33.12" height=".25"/>
          <rect class="cls-8" x="171.14" y="335.97" width="43.55" height=".25"/>
          <rect class="cls-8" x="52.46" y="334.26" width="48.56" height=".25"/>
          <rect class="cls-8" x="247.61" y="337.64" width="34.29" height=".25"/>
          <rect class="cls-8" x="442.46" y="337.64" width="7.44" height=".25"/>
          <rect class="cls-8" x="290.8" y="337.64" width="48.57" height=".25"/>
          <rect class="cls-8" x="326.62" y="341.86" width="93.68" height=".25"/>
          <path class="cls-8" d="m237.01,282.85H43.91c-3.15,0-5.71-2.56-5.71-5.71V5.71c0-3.15,2.56-5.71,5.71-5.71h193.1c3.15,0,5.71,2.56,5.71,5.71v271.43c0,3.15-2.56,5.71-5.71,5.71ZM43.91.25c-3.01,0-5.46,2.45-5.46,5.46v271.43c0,3.01,2.45,5.46,5.46,5.46h193.1c3.01,0,5.46-2.45,5.46-5.46V5.71c0-3.01-2.45-5.46-5.46-5.46H43.91Z"/>
          <path class="cls-8" d="m453.31,282.85h-193.1c-3.15,0-5.71-2.56-5.71-5.71V5.71c0-3.15,2.56-5.71,5.71-5.71h193.1c3.15,0,5.71,2.56,5.71,5.71v271.43c0,3.15-2.56,5.71-5.71,5.71ZM260.21.25c-3.01,0-5.46,2.45-5.46,5.46v271.43c0,3.01,2.45,5.46,5.46,5.46h193.1c3.01,0,5.46-2.45,5.46-5.46V5.71c0-3.01-2.45-5.46-5.46-5.46h-193.1Z"/>
        </g>
        <g>
          <g>
            <rect class="cls-9" x="201.66" y="220.7" width="8.86" height="100.27" transform="translate(412.18 541.67) rotate(180)"/>
            <rect class="cls-9" x="71.48" y="320.97" width="135.64" height="6.35" transform="translate(278.6 648.29) rotate(180)"/>
            <rect class="cls-12" x="68.08" y="220.7" width="133.58" height="100.27"/>
            <rect class="cls-9" x="75.04" y="233.04" width="119.65" height="32.88" rx="6.24" ry="6.24"/>
            <rect class="cls-9" x="75.04" y="275.74" width="119.65" height="32.88" rx="6.24" ry="6.24"/>
            <rect class="cls-12" x="97.56" y="247.23" width="74.62" height="4.51" rx="1.97" ry="1.97" transform="translate(269.74 498.97) rotate(180)"/>
            <rect class="cls-12" x="97.56" y="289.93" width="74.62" height="4.51" rx="1.97" ry="1.97" transform="translate(269.74 584.37) rotate(180)"/>
          </g>
          <g>
            <g>
              <g>
                <rect class="cls-9" x="386.46" y="114.75" width="35.77" height="205.74" transform="translate(808.69 435.24) rotate(180)"/>
                <rect class="cls-9" x="278.01" y="320.49" width="137.35" height="6.95" transform="translate(693.37 647.94) rotate(180)"/>
                <rect class="cls-12" x="271.14" y="114.75" width="115.32" height="205.74"/>
                <rect class="cls-9" x="285.2" y="228.84" width="87.2" height="35.98" rx="5.95" ry="5.95"/>
                <rect class="cls-9" x="285.2" y="271.39" width="87.2" height="35.98" rx="5.95" ry="5.95"/>
                <rect class="cls-9" x="285.2" y="127.88" width="87.2" height="94.4" rx="5.95" ry="5.95"/>
              </g>
              <rect class="cls-9" x="266.38" y="108.8" width="120.09" height="5.95" transform="translate(652.84 223.55) rotate(180)"/>
              <rect class="cls-10" x="386.46" y="108.8" width="40.77" height="5.95"/>
            </g>
            <g>
              <g>
                <rect class="cls-9" x="337.3" y="78.59" width="29.69" height="30.21"/>
                <rect class="cls-12" x="284.62" y="78.59" width="52.67" height="30.21" transform="translate(621.92 187.39) rotate(180)"/>
                <rect class="cls-11" x="284.31" y="83.15" width="82.68" height="2.44"/>
              </g>
              <g>
                <rect class="cls-9" x="337.3" y="77.11" width="31.33" height="7.06"/>
                <rect class="cls-12" x="282.99" y="77.11" width="54.31" height="7.06" transform="translate(620.28 161.29) rotate(180)"/>
              </g>
            </g>
            <g>
              <g>
                <rect class="cls-9" x="385.53" y="89.41" width="19.05" height="19.39"/>
                <rect class="cls-12" x="351.72" y="89.41" width="33.8" height="19.39" transform="translate(737.25 198.22) rotate(180)"/>
                <rect class="cls-11" x="351.53" y="92.34" width="53.06" height="1.57"/>
              </g>
              <g>
                <rect class="cls-9" x="385.53" y="88.47" width="20.11" height="4.53"/>
                <rect class="cls-12" x="350.67" y="88.47" width="34.86" height="4.53" transform="translate(736.2 181.46) rotate(180)"/>
              </g>
            </g>
          </g>
          <g>
            <rect class="cls-9" x="128.06" y="21.28" width="38.26" height="111.66" transform="translate(294.38 154.23) rotate(180)"/>
            <rect class="cls-12" x="119.85" y="21.28" width="44" height="111.66" transform="translate(283.7 154.23) rotate(180)"/>
            <rect class="cls-14" x="90.41" y="58.8" width="102.88" height="36.63" transform="translate(64.73 218.96) rotate(-90)"/>
            <rect class="cls-12" x="101.78" y="67.68" width="80.14" height="18.87" transform="translate(64.73 218.96) rotate(-90)"/>
          </g>
          <g>
            <rect class="cls-9" x="73.08" y="45.33" width="38.26" height="111.66" transform="translate(184.41 202.33) rotate(180)"/>
            <rect class="cls-12" x="64.86" y="45.33" width="44" height="111.66" transform="translate(173.72 202.33) rotate(180)"/>
            <rect class="cls-14" x="35.42" y="82.85" width="102.88" height="36.63" transform="translate(-14.3 188.03) rotate(-90)"/>
            <rect class="cls-12" x="46.79" y="91.73" width="80.15" height="18.87" rx="7.54" ry="7.54" transform="translate(-14.3 188.03) rotate(-90)"/>
          </g>
          <g>
            <rect class="cls-9" x="181.35" y="61.36" width="38.26" height="111.66" transform="translate(400.96 234.37) rotate(180)"/>
            <rect class="cls-12" x="173.13" y="61.36" width="44" height="111.66" transform="translate(390.27 234.37) rotate(180)"/>
            <rect class="cls-14" x="143.69" y="98.87" width="102.88" height="36.63" transform="translate(77.95 312.32) rotate(-90)"/>
            <rect class="cls-12" x="155.06" y="107.75" width="80.15" height="18.87" rx="7.54" ry="7.54" transform="translate(77.95 312.32) rotate(-90)"/>
          </g>
        </g>
      </g>
      <g id="Shadow">
        <ellipse id="_Path_" data-name="&amp;lt;Path&amp;gt;" class="cls-12" cx="250" cy="361.29" rx="193.89" ry="11.32"/>
      </g>
      <g id="Email">
        <g>
          <g>
            <path class="cls-2" d="m382.12,245.43h-234.4c-5.93,0-10.54-4.85-10.25-10.77l8.87-181.35c.29-5.93,5.37-10.77,11.3-10.77h234.4c5.93,0,10.54,4.85,10.25,10.77l-8.87,181.35c-.29,5.93-5.37,10.77-11.3,10.77Z"/>
            <path class="cls-16" d="m382.12,245.43h-234.4c-5.93,0-10.54-4.85-10.25-10.77l8.87-181.35c.29-5.93,5.37-10.77,11.3-10.77h234.4c5.93,0,10.54,4.85,10.25,10.77l-8.87,181.35c-.29,5.93-5.37,10.77-11.3,10.77Z"/>
          </g>
          <rect class="cls-2" x="215" y="39.39" width="4.79" height=".9"/>
          <rect class="cls-2" x="190.01" y="39.39" width="19.6" height=".9"/>
          <path class="cls-2" d="m392.04,42.53h-234.4c-5.93,0-11.01,4.85-11.3,10.77h255.95c.29-5.93-4.32-10.77-10.25-10.77Z"/>
          <path class="cls-14" d="m389.5,72.16h-232.2c-1.6,0-2.83-1.3-2.75-2.89l.29-5.89c.08-1.6,1.44-2.89,3.03-2.89h232.2c1.6,0,2.83,1.3,2.75,2.89l-.29,5.89c-.08,1.6-1.44,2.89-3.03,2.89Z"/>
          <path class="cls-4" d="m225.24,69.37h-62.9c-.83,0-1.48-.68-1.43-1.51l.15-3.07c.04-.83.75-1.51,1.58-1.51h62.9c.83,0,1.48.68,1.43,1.51l-.15,3.07c-.04.83-.75,1.51-1.58,1.51Z"/>
          <path class="cls-14" d="m388.61,90.19h-232.2c-1.6,0-2.83-1.3-2.75-2.89l.29-5.89c.08-1.6,1.44-2.89,3.03-2.89h232.2c1.6,0,2.83,1.3,2.75,2.89l-.29,5.89c-.08,1.6-1.44,2.89-3.03,2.89Z"/>
          <path class="cls-4" d="m234.59,87.4h-73.14c-.83,0-1.48-.68-1.43-1.51l.15-3.07c.04-.83.75-1.51,1.58-1.51h73.14c.83,0,1.48.68,1.43,1.51l-.15,3.07c-.04.83-.75,1.51-1.58,1.51Z"/>
          <path class="cls-14" d="m384.98,227.95h-232.2c-1.6,0-2.83-1.3-2.75-2.89l6.05-123.74c.08-1.6,1.44-2.89,3.03-2.89h232.2c1.6,0,2.83,1.3,2.75,2.89l-6.05,123.74c-.08,1.6-1.44,2.89-3.03,2.89Z"/>
          <path class="cls-4" d="m201.6,107.79h-41.05c-.83,0-1.48-.68-1.43-1.51l.15-3.07c.04-.83.75-1.51,1.58-1.51h41.05c.83,0,1.48.68,1.43,1.51l-.15,3.07c-.04.83-.75,1.51-1.58,1.51Z"/>
          <path class="cls-4" d="m279.4,120.23h-119.52c-.83,0-1.48-.68-1.43-1.51l.15-3.07c.04-.83.75-1.51,1.58-1.51h119.52c.83,0,1.48.68,1.43,1.51l-.15,3.07c-.04.83-.75,1.51-1.58,1.51Z"/>
          <path class="cls-4" d="m257.16,129.5h-97.72c-.83,0-1.48-.68-1.43-1.51l.15-3.07c.04-.83.75-1.51,1.58-1.51h97.72c.83,0,1.48.68,1.43,1.51l-.15,3.07c-.04.83-.75,1.51-1.58,1.51Z"/>
          <path class="cls-2" d="m363.45,238.7h17.21c1.98,0,3.67-1.62,3.77-3.59h0c.1-1.98-1.44-3.59-3.42-3.59h-17.21c-1.98,0-3.67,1.62-3.77,3.59h0c-.1,1.98,1.44,3.59,3.42,3.59Z"/>
          <path class="cls-5" d="m344.09,235.11c-.07,1.49,1.07,2.69,2.56,2.69s2.75-1.21,2.82-2.69c.07-1.49-1.07-2.69-2.56-2.69s-2.75,1.21-2.83,2.69Z"/>
          <path class="cls-5" d="m331.37,235.11c-.07,1.49,1.07,2.69,2.56,2.69s2.75-1.21,2.83-2.69c.07-1.49-1.07-2.69-2.56-2.69s-2.75,1.21-2.83,2.69Z"/>
          <path class="cls-5" d="m318.64,235.11c-.07,1.49,1.07,2.69,2.56,2.69s2.75-1.21,2.83-2.69c.07-1.49-1.07-2.69-2.56-2.69s-2.75,1.21-2.82,2.69Z"/>
          <path class="cls-1" d="m266.99,216.9l.03-.6.1-2.22c.06-1.48.04-2.95.03-4.43-.06-2.94-.22-5.87-.56-8.75-.34-2.89-.77-5.76-1.35-8.59-.16-.72-.31-1.44-.49-2.15l2.44-1.99s-3.95-13.74-7.97-14.74c0,0-.03-.01-.1-.02-.26-.06-.54-.1-.81-.11-2.4-.34-9.26-1.2-16.33-1.13-3.11-2.95-2.62-9.05-1.51-14.44.2-.33.39-.66.57-.98,4.06-2.56,8.02-7.19,9.61-12.69,2.48.57,6.19.54,10.77-2.24-1.73.45-3.46.42-4.92.23,3.95-1.49,6.82-5.64,6.65-10.03-.18-5.02-4.25-8.45-9.08-7.66-2.53.41-4.78,1.91-6.3,3.97-.13-.01-.27-.01-.4-.01-1.27-.99-3.01-1.64-5.35-1.71-4.82-6.14-25.7-4.45-29.1,3.77-1.8,4.38-.62,6.96,1.4,8.48-.37,1.49-.58,3.05-.58,4.63-.24.19-.49.42-.74.69-.19.21-.18.5,0,.67.13.1.29.12.45.06.08-.03.16-.08.22-.15l.1-.09c.11,1.56.45,3.13,1.03,4.68.07,3.72.74,7.3,1.76,10.12,2.03,5.64,7.53,7.88,13.05,6.63.03.4.07.8.07,1.2h.02c-.02,2.68-1.34,4.51-6.33,5.96-2.71.4-5.56.94-8.14,1.47-3.2.67-5.98,2.6-7.84,5.16-3.81,4.1-8.56,17.12-8.56,17.12l3.13,1.7c-.34,1.32-.68,2.64-1.04,3.96-.02.06-.03.11-.05.17h-22.49c-3.1,0-5.5,2.54-5.34,5.64l.55,10.23c-.09.06-.17.11-.25.19l-1.88,1.76.43,8.93s1.03.7,2.35,1.24l.26,5.02c.04.65.19,1.27.42,1.85-11.03,1.02-17.07,3.79-18.57,7.73h90.7c.45-2.69.68-5.69.68-9.02l.86-.05c.47-.03.83-.34.71-.61l-.8-3.58c-.08-.18-.34-.28-.65-.27h-.05c.04-1.07.08-2.14.12-3.19,2.44.01,4.96-.13,7.7-.69,1.72-.38,3.54-.89,5.57-2.04,1-.58,2.07-1.36,3.04-2.42.97-1.05,1.77-2.4,2.22-3.75.24-.68.38-1.34.47-1.98.04-.32.06-.62.08-.93Zm-9.3,1.26c-.03.08-.16.25-.45.45-.55.42-1.58.86-2.69,1.19-1.84.57-3.97.9-6.14,1.12.5-5.41,1.36-11.15,3-18.52.13-.59.26-1.2.4-1.81.06-.25.11-.5.18-.76.08-.33.15-.66.24-.99.39.61.64.97.64.97l2.59-2.1c.39,1.88.75,3.78,1.03,5.71.36,2.61.66,5.25.88,7.9.07,1.33.19,2.66.23,4l.1,2.74s.04.01,0,.1Z"/>
        </g>
      </g>
      <g id="Character">
        <g>
          <g>
            <path class="cls-2" d="m264.06,276.89h-98.28c-.92,0-1.59-.88-1.34-1.77l.03-.11c1.95-6.96,9.17-12.6,16.13-12.6h86.74c.92,0,1.59.88,1.34,1.77l-3.28,11.69c-.17.6-.72,1.02-1.34,1.02Z"/>
            <g>
              <polygon class="cls-2" points="265.97 361.29 269.88 361.29 255.22 276.89 251.31 276.89 265.97 361.29"/>
              <polygon class="cls-15" points="265.97 361.29 269.88 361.29 255.22 276.89 251.31 276.89 265.97 361.29"/>
            </g>
            <g>
              <polygon class="cls-2" points="243.98 361.29 247.89 361.29 240.56 276.89 236.65 276.89 243.98 361.29"/>
              <polygon class="cls-15" points="243.98 361.29 247.89 361.29 240.56 276.89 236.65 276.89 243.98 361.29"/>
            </g>
            <g>
              <polygon class="cls-2" points="165.84 361.29 161.93 361.29 176.59 276.89 180.5 276.89 165.84 361.29"/>
              <polygon class="cls-15" points="165.84 361.29 161.93 361.29 176.59 276.89 180.5 276.89 165.84 361.29"/>
            </g>
            <g>
              <polygon class="cls-2" points="187.83 361.29 183.92 361.29 191.26 276.89 195.16 276.89 187.83 361.29"/>
              <polygon class="cls-15" points="187.83 361.29 183.92 361.29 191.26 276.89 195.16 276.89 187.83 361.29"/>
            </g>
          </g>
          <g>
            <path class="cls-18" d="m242.94,132.01c.83,5.01-2.32,9.72-7.05,10.5-4.73.78-9.23-2.64-10.07-7.66-.83-5.01,2.32-9.72,7.05-10.5,4.73-.78,9.23,2.64,10.07,7.66Z"/>
            <path class="cls-18" d="m228.45,142.62s6.13,4.39,14.03-.8c-4.11,1.08-8.66-.66-8.66-.66l-5.37,1.46Z"/>
            <path class="cls-2" d="m233.98,135.17c.73,4.38-1.84,8.46-5.73,9.11-3.89.65-7.63-2.38-8.36-6.77-.73-4.38,1.84-8.46,5.73-9.1,3.89-.65,7.63,2.38,8.36,6.77Z"/>
            <path class="cls-18" d="m220.11,158.6c7.78-2.04,17.22-15,8.84-27.81-3.17,0-11.85,2.92-11.85,2.92l3.02,24.89Z"/>
            <path class="cls-18" d="m199.87,128.87c-6.02,5.33-8.88,19.77,4.63,28.81,2.83-1.43,9.27-7.95,9.27-7.95l-13.9-20.86Z"/>
            <path class="cls-17" d="m201.6,188.45c-.05,1.46-.11,2.72-.23,4.06-.11,1.32-.23,2.63-.37,3.93-.27,2.61-.64,5.21-1.06,7.79-.85,5.17-1.96,10.29-3.34,15.35l-1.09,3.78-1.2,3.75c-.52,1.64-1.6,3.68-3.18,5.08-1.58,1.46-3.49,2.33-5.24,2.73-3.54.77-6.56.27-9.32-.43-1.38-.37-2.7-.82-3.97-1.36-1.29-.54-2.47-1.09-3.76-1.83l1.97-4.68c1.08.21,2.31.47,3.46.63,1.17.15,2.33.29,3.46.34,2.23.12,4.44-.06,5.82-.68.69-.3,1.1-.64,1.33-.99.12-.17.2-.37.3-.59.04-.11.09-.23.12-.37.02-.07.04-.13.05-.21l.07-.3.91-3.58.83-3.61c1.06-4.82,1.92-9.69,2.62-14.58.36-2.44.66-4.89.93-7.34.14-1.22.25-2.45.36-3.66.1-1.2.21-2.48.27-3.56l10.25.34Z"/>
            <path class="cls-2" d="m194.37,178.92c-3.64,2.22-7.39,18.08-7.39,18.08l15.73,7.99s6.7-17.14,3.58-21.72c-3.26-4.77-6.61-7.59-11.92-4.35Z"/>
            <path class="cls-19" d="m191.32,190.85c-.63,1.76-.77,4.94.06,8.39l11.33,5.75s3.92-10,4.36-16.77c-4.01-3.94-13.21-4.45-15.75,2.63Z"/>
            <path class="cls-17" d="m172.78,227.27l-10.12-6.62,1.58,8.93s3.7,2.31,5.96,1.8l2.58-4.11Z"/>
            <path class="cls-2" d="m191.8,186.3c.59,8.84,2.5,24.66,8.24,50.69l40.68-2.4c-1.66-16.51-2.28-26.72,3.63-61.16,0,0-8.63-1.35-17.41-1.26-6.86.07-12.49.19-18.47,1.09-2.66.4-5.44.94-7.95,1.47-5.38,1.15-9.09,6.08-8.72,11.57Z"/>
            <path class="cls-19" d="m211.34,181.04s4,5.06,9.44,6.7c5.44,1.63,6.98-9.47,6.16-15.57-5.04-1.26-15.6,8.87-15.6,8.87Z"/>
            <path class="cls-14" d="m211.34,181.04s4.52,4.53,9.96,6.16c5.44,1.64,6.46-8.93,5.64-15.03-5.04-1.26-15.6,8.87-15.6,8.87Z"/>
            <path class="cls-19" d="m211.34,181.04s-2.12,4.19-7.45,6.16c-5.33,1.97.35-11.73,4.58-13.94,5.04-1.26,2.87,7.78,2.87,7.78Z"/>
            <path class="cls-14" d="m211.34,181.04s-2.29,3.87-7.73,5.51c-5.44,1.64.63-11.07,4.86-13.29,5.04-1.26,2.87,7.78,2.87,7.78Z"/>
            <path class="cls-14" d="m241.18,232.17l1.25,3.58c.16.27-.16.58-.63.61l-41.86,2.47c-.37.02-.68-.14-.72-.37l-.58-3.62c-.04-.25.27-.48.67-.51l41.19-2.43c.3-.02.58.09.68.27Z"/>
            <g>
              <path class="cls-18" d="m235.78,237.11l1.1-.07c.22-.01.38-.14.36-.27l-.8-4.7c-.02-.14-.22-.24-.44-.23l-1.1.07c-.22.01-.38.14-.36.27l.8,4.7c.02.14.22.24.44.23Z"/>
              <path class="cls-18" d="m203.07,239.04l1.1-.07c.22-.01.38-.14.36-.27l-.8-4.7c-.02-.14-.22-.24-.44-.23l-1.1.07c-.22.01-.38.14-.36.27l.8,4.7c.02.14.22.24.44.23Z"/>
              <path class="cls-18" d="m219.36,238.08l1.1-.07c.22-.01.38-.14.36-.27l-.8-4.7c-.02-.14-.22-.24-.44-.23l-1.1.07c-.22.01-.38.14-.36.27l.8,4.7c.02.14.22.24.44.23Z"/>
            </g>
            <path class="cls-19" d="m243.45,178.74c-3.3,1.48-6.52,4.77-7.87,8.15-1.82,4.56,3.42,13.64,4.67,15.67.58-6.42,1.61-14.07,3.2-23.83Z"/>
            <path class="cls-17" d="m224.01,153.71c-.81,6.01-1.47,14.74,2.92,18.46,0,0-8.24,4.84-15.54,15.03-7.09-9.37-2.93-13.94-2.93-13.94,6.53-1.97,6.2-4.65,4.78-9.2l10.77-10.35Z"/>
            <path class="cls-19" d="m219.62,157.93l-6.37,6.12c.34,1.08.62,2.17.76,3.24,2.51-.52,6.36-2.91,6.75-5.69.18-1.32-.88-3.07-1.14-3.67Z"/>
            <path class="cls-17" d="m223.81,139.66c1.58,9.83,2.46,13.96-1.32,20.03-5.69,9.14-18.11,8.93-22.59-.23-4.04-8.25-5.94-22.94,2.69-28.93,8.5-5.9,19.65-.71,21.23,9.12Z"/>
            <path class="cls-18" d="m221.11,126.6c-10-7.17-34.68-4.13-30.89,4.19,4.56,9.99,12.39,10.26,12.39,10.26,0,0-3.12-1.5-3.06-3.5,7.33-2.28,12.94,2.33,16.11-.68-1.39,5.68,7.72,11.05,7.72,11.05,0,0,3.84-3.13,6-8.04s.44-13-8.28-13.28Z"/>
            <path class="cls-18" d="m208.92,145.71c.18.79-.1,1.52-.61,1.64-.52.12-1.08-.43-1.26-1.22-.18-.79.1-1.52.61-1.64.52-.12,1.08.43,1.26,1.22Z"/>
            <path class="cls-18" d="m199.99,147.71c.18.79-.1,1.52-.61,1.64-.52.12-1.08-.43-1.26-1.22-.18-.79.1-1.52.61-1.64.52-.12,1.08.43,1.26,1.22Z"/>
            <path class="cls-18" d="m198.97,146.48l-2.02-.12s1.31,1.26,2.02.12Z"/>
            <path class="cls-13" d="m203.06,148.51s-.58,3.7-1.68,5.67c1.26.74,2.93-.1,2.93-.1l-1.25-5.57Z"/>
            <path class="cls-18" d="m209.31,156.21c-.35.14-.73.26-1.14.35-.13.03-.26-.05-.28-.18-.03-.13.05-.26.18-.28,3.47-.78,4.54-3.56,4.55-3.59.05-.12.18-.19.31-.14.12.05.19.18.14.31-.04.11-.94,2.44-3.75,3.54Z"/>
            <path class="cls-17" d="m227.6,147.28c-.3,2.04-1.52,3.75-2.9,4.74-2.07,1.49-3.98-.16-4.13-2.57-.14-2.17.78-5.56,3.21-6.09,2.4-.52,4.17,1.59,3.82,3.92Z"/>
            <path class="cls-18" d="m210.28,141.44c-.19.05-.41-.02-.52-.2-1.19-1.85-4.02-1.99-4.05-1.99-.26-.01-.47-.23-.45-.49.01-.26.23-.47.49-.45.14,0,3.35.17,4.81,2.43.14.22.08.51-.14.66-.04.03-.09.05-.14.06Z"/>
            <path class="cls-18" d="m194.91,144.91c-.15.06-.33.04-.47-.07-.21-.16-.24-.46-.08-.67,1.61-2.07,3.8-1.92,3.89-1.91.26.02.46.25.43.51-.02.26-.25.45-.51.43-.09,0-1.79-.1-3.07,1.55-.05.07-.12.12-.2.15Z"/>
            <g>
              <polygon class="cls-17" points="149.24 352.43 140.39 348.51 148.99 325.97 157.83 329.89 149.24 352.43"/>
              <path class="cls-18" d="m140.05,346.64l10.67,3.62c.39.13.61.51.54.91l-1.65,8.86c-.17.92-1.21,1.49-2.1,1.17-3.7-1.33-5.42-2.15-10.11-3.75-2.89-.98-9.04-2-13.03-3.35-3.9-1.32-2.86-5.37-1.08-5.16,7.99.92,11.75-1,14.97-2.25.58-.23,1.22-.24,1.79-.05Z"/>
              <g class="cls-7">
                <polygon points="157.83 329.9 148.98 325.97 143.86 339.42 153.16 342.15 157.83 329.9"/>
              </g>
              <path class="cls-18" d="m219.47,235.84s-54.59,3.92-56.75,22.44c-3.67,31.51-19.01,75.05-19.01,75.05l12.33,5.22s22.79-41.93,29.12-69.29c10.57-5.98,63.24,15.44,55.55-34.67l-21.24,1.25Z"/>
              <polygon class="cls-2" points="157.38 340.37 141.16 335.4 142.33 329.42 160.34 334.75 157.38 340.37"/>
              <path class="cls-2" d="m134.66,346.19s-.04-.07-.06-.1c-.22-.4-.21-.84.03-1.32.18-.36.46-.46.66-.48,1.27-.12,3.53,2.72,3.78,3.04.07.08.07.18.02.26-.05.08-.14.13-.23.12-1.29-.12-3.51-.48-4.2-1.52Zm3.68.98c-.93-1.11-2.33-2.48-3-2.41-.08,0-.19.04-.28.22-.17.34-.18.62-.04.88.33.61,1.56,1.08,3.32,1.31Z"/>
              <path class="cls-2" d="m138.48,347.33c-.7-1.03-1.48-3.26-.96-4.16.11-.19.38-.49.97-.37.37.08.66.29.85.62.72,1.26-.19,4-.23,4.12-.03.08-.1.14-.18.16-.08.02-.17-.01-.22-.07-.07-.08-.15-.18-.23-.3Zm.41-3.73c-.12-.18-.28-.29-.5-.33-.3-.06-.4.04-.46.14-.35.61.2,2.51.86,3.54.26-.93.57-2.54.14-3.29-.01-.02-.03-.04-.04-.06Z"/>
            </g>
            <g>
              <polygon class="cls-17" points="175 324.1 166.7 329.09 153.2 309.1 161.49 304.11 175 324.1"/>
              <path class="cls-18" d="m164.98,328.29l9.1-6.65c.33-.24.77-.21,1.05.08l6.3,6.44c.65.67.53,1.84-.25,2.39-3.21,2.27-4.88,3.2-8.88,6.12-2.46,1.8-6.83,6.25-10.23,8.74-3.32,2.43-6.04-.74-4.85-2.08,5.35-6.01,5.93-10.19,6.76-13.55.15-.61.51-1.13.99-1.49Z"/>
              <g class="cls-7">
                <polygon points="161.49 304.12 153.2 309.1 161.26 321.02 168.84 314.98 161.49 304.12"/>
              </g>
              <path class="cls-18" d="m195.01,236.99s-57.65-2.65-61.01,15.69c-5.71,31.21,22.18,64.97,22.18,64.97l11.36-7.09s-8.59-23.99-11.86-45.47c10.94-5.28,69.72,21.26,65.3-29.24l-25.98,1.14Z"/>
              <path class="cls-19" d="m175.93,245.27c-.93,0-1.84.21-2.68.61-6.66,3.14-11.58,7.2-12.4,12.41-.31,1.98-.67,4.01-1.07,6.07.66-.01,1.36,0,2.11.03.32-2.07.6-4.11.83-6.1.64-5.56,6.01-9.8,13.21-13.02h0Z"/>
              <polygon class="cls-2" points="169.81 310.5 156.41 320.92 152.19 316.53 166.92 304.85 169.81 310.5"/>
              <path class="cls-2" d="m161.51,332.44s-.08,0-.12,0c-.45-.05-.81-.31-1.06-.79-.19-.36-.11-.64-.01-.82.63-1.12,4.25-1.33,4.66-1.35.1,0,.18.05.23.13s.03.19-.03.26c-.84.98-2.41,2.59-3.66,2.57Zm2.91-2.45c-1.45.13-3.36.48-3.7,1.07-.04.07-.08.18.02.36.18.33.4.51.7.54.69.08,1.78-.65,2.98-1.97Z"/>
              <path class="cls-2" d="m164.64,329.97c-1.25-.02-3.52-.66-3.96-1.6-.09-.2-.18-.6.25-1.01.28-.26.61-.37,1-.34,1.45.14,3.17,2.46,3.24,2.56.05.07.06.16.03.24-.03.08-.11.13-.19.14-.11.01-.23.02-.37.01Zm-2.82-2.48c-.22,0-.4.07-.56.22-.22.21-.2.36-.15.46.3.64,2.17,1.28,3.39,1.33-.61-.74-1.75-1.92-2.62-2-.02,0-.05,0-.07,0Z"/>
            </g>
            <path class="cls-18" d="m207.9,144.48l-2.02-.12s1.31,1.26,2.02.12Z"/>
            <path class="cls-17" d="m226.67,222.21l-9.67-4.91,2.33,9.93s6.2,1.73,9.09-1.28l-1.76-3.75Z"/>
            <path class="cls-17" d="m249.33,183.81c.41.83.71,1.47,1.03,2.19.31.7.59,1.4.87,2.1.56,1.4,1.08,2.8,1.56,4.21.95,2.83,1.75,5.7,2.46,8.59.71,2.89,1.24,5.82,1.69,8.76.2,1.47.4,2.95.53,4.43l.2,2.22.05.6c.02.31.03.61.03.93,0,.64-.07,1.3-.21,1.98-.28,1.35-.91,2.7-1.75,3.75-.83,1.06-1.8,1.84-2.72,2.42-1.88,1.15-3.64,1.66-5.31,2.04-3.34.69-6.41.75-9.44.66-6.04-.23-11.74-1.21-17.47-2.64l.86-5.01c5.49.32,11.14.42,16.47.03,2.65-.22,5.28-.57,7.46-1.26,1.07-.33,2.03-.77,2.54-1.19.26-.2.37-.38.39-.45.02-.08-.02-.06-.03-.1l-.45-2.74c-.21-1.34-.5-2.67-.74-4-.55-2.65-1.2-5.29-1.9-7.9-.72-2.61-1.55-5.19-2.45-7.73-.43-1.28-.9-2.54-1.39-3.78l-.75-1.84c-.24-.59-.53-1.25-.73-1.7l9.18-4.57Z"/>
            <path class="cls-2" d="m244.34,173.43c4.15,1,9.87,14.74,9.87,14.74l-12.83,11.64s-8.77-10.78-7.37-16.15c1.46-5.59,5.59-11.38,10.33-10.24Z"/>
            <polygon class="cls-17" points="208.73 218.93 211.13 227.14 219.34 227.23 217.01 217.3 208.73 218.93"/>
            <g>
              <path class="cls-14" d="m216.38,241.49h-42.05c-3.1,0-6.1-2.54-6.67-5.64l-4.99-27.37c-.57-3.1,1.51-5.64,4.61-5.64h42.05c3.1,0,6.1,2.54,6.67,5.64l4.99,27.37c.57,3.1-1.51,5.64-4.61,5.64Z"/>
              <path class="cls-3" d="m215.63,241.49h-41.3c-3.1,0-6.1-2.54-6.67-5.64l-4.99-27.37c-.57-3.1,1.51-5.64,4.61-5.64h41.3c3.1,0,6.1,2.54,6.67,5.64l4.99,27.37c.57,3.1-1.51,5.64-4.61,5.64Z"/>
            </g>
            <path class="cls-17" d="m162.65,220.66l1.58,8.93,3.48-3.26-.93-6.65c-.17-1.2-1.65-1.67-2.48-.78l-1.65,1.76Z"/>
          </g>
        </g>
      </g>
    </g>
  </g>
</svg>