<?xml version="1.0" encoding="UTF-8"?>
<svg id="Layer_2" data-name="Layer 2" xmlns="http://www.w3.org/2000/svg" viewBox="0 0 972.67 636.54">
  <defs>
    <style>
      .cls-1 {
        fill: #043429;
      }

      .cls-2 {
        fill: #e6e6e6;
      }

      .cls-3 {
        fill: #fff;
      }

      .cls-4 {
        fill: #ffb6b6;
      }

      .cls-5 {
        fill: #e4e4e4;
      }

      .cls-6 {
        fill: #9e616a;
      }

      .cls-7 {
        fill: #cacaca;
      }

      .cls-8 {
        fill: #0d3048;
      }

      .cls-9 {
        fill: #376356;
      }
    </style>
  </defs>
  <g id="ee38abc9-dc4f-4e1a-883a-6567bef3cfb6">
    <path class="cls-4" d="m853.42,426.66c-3.56-4.26-2.99-10.6,1.27-14.16.45-.38.94-.72,1.46-1.01l-6.58-35.12,17.12,7.19,3.63,32.25c2.44,5.02.36,11.07-4.66,13.52-4.2,2.05-9.26.95-12.23-2.66h0Z"/>
    <rect id="f38b076b-59d8-4a3a-9764-ba710fdc09c8" class="cls-2" x="61.13" y="20.61" width="751.61" height="356.65"/>
    <rect id="a3e272cc-df3f-4d80-b321-62d216886f20" class="cls-3" x="82.62" y="51.19" width="708.62" height="297.56"/>
    <rect id="e835d13b-e721-4725-9202-bbf482b4bd3b" class="cls-1" x="60.81" width="751.61" height="31.93"/>
    <circle id="be4979c6-1dab-43b6-a6ee-71cd46d62419" class="cls-3" cx="84.54" cy="14.77" r="5.92"/>
    <circle id="b0ea5047-583b-4910-b1a7-8a4b76ab40b8" class="cls-3" cx="107" cy="14.77" r="5.92"/>
    <circle id="f37d9a3e-ad35-4554-bb71-f31101cbe222" class="cls-3" cx="129.47" cy="14.77" r="5.92"/>
    <path id="bb164f67-fbc5-46a9-bc53-51bf316e72eb" class="cls-2" d="m124.07,242.63c-1.72,0-3.1,1.4-3.09,3.12,0,1.71,1.39,3.09,3.09,3.09h170.41c1.72,0,3.1-1.4,3.09-3.12,0-1.71-1.39-3.09-3.09-3.09H124.07Z"/>
    <path id="a443cdab-5007-48b4-8b70-6d9701024bb2" class="cls-2" d="m124.07,261.27c-1.72,0-3.1,1.4-3.09,3.12,0,1.71,1.39,3.09,3.09,3.09h87c1.72,0,3.1-1.4,3.09-3.12,0-1.71-1.39-3.09-3.09-3.09h-87Z"/>
    <path id="f7d6bd93-8cee-4d05-900c-0964279c7a84" class="cls-1" d="m294.69,296.45h-64.73c-1.75,0-3.16-1.42-3.16-3.16v-10.37c0-1.75,1.42-3.16,3.16-3.16h64.73c1.75,0,3.16,1.42,3.16,3.16v10.37c0,1.75-1.42,3.16-3.16,3.16Z"/>
    <path id="b9375ed9-a91c-4567-8040-b14da9424350" class="cls-1" d="m294.69,188.45h-64.73c-1.75,0-3.16-1.42-3.16-3.16v-10.37c0-1.75,1.42-3.16,3.16-3.16h64.73c1.75,0,3.16,1.42,3.16,3.16v10.37c0,1.75-1.42,3.16-3.16,3.16Z"/>
    <path id="e51c2c64-3ae5-421d-97d2-6993e1b4a0e1" class="cls-2" d="m408.78,103.23c-2.24,0-4.05,1.82-4.04,4.06,0,2.23,1.81,4.04,4.04,4.04h338.91c2.24,0,4.05-1.82,4.04-4.06,0-2.23-1.81-4.04-4.04-4.04h-338.91Z"/>
    <path id="bb6ebd78-ef21-4bf3-8138-c36b4f5ae8d3" class="cls-2" d="m408.78,127.55c-2.24,0-4.05,1.81-4.05,4.05s1.81,4.05,4.05,4.05h230.07c2.24,0,4.05-1.81,4.05-4.05s-1.81-4.05-4.05-4.05h-230.07Z"/>
    <path id="b0279cb1-e051-4fdd-8ff4-a6bdaa244cb4" class="cls-2" d="m408.78,151.31c-2.24,0-4.05,1.81-4.05,4.05s1.81,4.05,4.05,4.05h338.91c2.24,0,4.05-1.81,4.05-4.05s-1.81-4.05-4.05-4.05h-338.91Z"/>
    <path id="b8fe22d0-d29e-4fd2-8057-acce26acd380" class="cls-2" d="m408.78,175.63c-2.24,0-4.05,1.81-4.05,4.05s1.81,4.05,4.05,4.05h230.07c2.24,0,4.05-1.81,4.05-4.05s-1.81-4.05-4.05-4.05h-230.07Z"/>
    <path id="e1b0698e-7706-4223-aefd-57a6dfde5692" class="cls-1" d="m748.69,228.22h-64.73c-1.75,0-3.16-1.42-3.16-3.16v-10.37c0-1.75,1.42-3.16,3.16-3.16h64.73c1.75,0,3.16,1.42,3.16,3.16v10.37c0,1.75-1.42,3.16-3.16,3.16Z"/>
    <path id="f8f2501b-24d6-4bc5-9452-5f6747352c8d" class="cls-5" d="m197.46,107.62c-1.15,0-2.08,1.5-2.08,3.34,0,1.83.93,3.32,2.08,3.32h98.18c1.15,0,2.08-1.5,2.08-3.34,0-1.83-.93-3.32-2.08-3.32h-98.18Z"/>
    <path id="bf240ba4-7ac6-4616-9791-82be96e2dade" class="cls-5" d="m197.46,126.91c-1.15,0-2.08,1.5-2.08,3.34,0,1.83.93,3.32,2.08,3.32h98.18c1.15,0,2.08-1.5,2.08-3.34,0-1.83-.93-3.32-2.08-3.32h-98.18Z"/>
    <path id="a4452d36-433f-4f97-99ed-f04c2decb731" class="cls-5" d="m197.46,145.97c-1.15,0-2.08,1.5-2.08,3.34,0,1.83.93,3.32,2.08,3.32h42.25c1.15,0,2.08-1.5,2.08-3.34,0-1.83-.93-3.32-2.08-3.32h-42.25Z"/>
    <circle class="cls-5" cx="147.61" cy="129.87" r="26.64"/>
    <path class="cls-4" d="m699.27,222.94c-.71,5.51,3.17,10.55,8.68,11.26.59.08,1.18.1,1.77.07l13.32,33.16,10.58-15.26-14.27-29.15c-.64-5.55-5.65-9.53-11.19-8.89-4.64.53-8.31,4.17-8.88,8.81Z"/>
    <polygon class="cls-4" points="849.39 621.77 837.13 621.77 831.3 574.48 849.39 574.48 849.39 621.77"/>
    <path class="cls-8" d="m852.52,633.65h-39.53v-.5c0-8.5,6.89-15.39,15.39-15.39h24.14s0,15.89,0,15.89Z"/>
    <polygon class="cls-4" points="809.27 621.38 797.58 617.67 806.3 570.83 823.55 576.29 809.27 621.38"/>
    <path class="cls-8" d="m808.67,633.65l-37.69-11.93.15-.48c2.57-8.1,11.21-12.59,19.31-10.03h0s23.02,7.29,23.02,7.29l-4.8,15.15Z"/>
    <path class="cls-8" d="m794.75,390.65s-18.19,28.56-11.76,54.05,13.43,74.49,13.43,74.49l34.85,82.94,25.98-1.06-25.8-97.79,1.02-65.39s17.93-31.25,14.44-40.98-52.16-6.27-52.16-6.27Z"/>
    <path class="cls-8" d="m854.18,400.86s2.24,28.33-4.76,40.33-14.46,57.67-14.46,57.67l-11.9,91.35-24.64-8.02,21.01-102.34,16.52-80.5,18.23,1.51Z"/>
    <path class="cls-9" d="m862.92,263.7l-19.23-13.22-29.26-.85-10.19,9.99-15.55,7.94-1.44,129.36s46.57,22.32,71.62,11.55l12.05-100.77c5-20-8-44-8-44Z"/>
    <path class="cls-9" d="m792.6,302.13h-51.29l-33.7-58,21.91-8.68,18.56,33.01,26.86-2.43,16.77-.81c10.19-.49,18.85,7.37,19.34,17.55.05,1.05.01,2.1-.12,3.14h0c-1.15,9.26-9,16.21-18.33,16.22Z"/>
    <circle class="cls-4" cx="831.45" cy="213.61" r="25.37"/>
    <path class="cls-8" d="m862.01,207.83c-.78-5.57-4.55-10.86-9.92-12.55-2.13-6.19-7.78-10.74-14.01-12.73-11.88-3.79-24.82.93-31.47,11.48-.48.75-1.94,2.59-1.9,3.49.05,1.14,1.79,2.31,2.67,3.03,2.17,1.67,4.5,3.12,6.97,4.3,9.12,4.73,6.09,12.16,5.96,20.59-.06,4.09,1.31,7.59,4.8,9.93,5.04,3.37,12.25,2.03,17.73.68,6.22-1.54,11.39-7,14.94-12.27,3.14-4.67,5.02-10.37,4.24-15.94Z"/>
    <polygon class="cls-9" points="862.19 296.73 872.06 405.01 840.35 403.31 862.19 296.73"/>
    <path class="cls-7" d="m971.48,636.54h-388.29c-.66,0-1.19-.54-1.18-1.2,0-.65.53-1.18,1.18-1.18h388.29c.66,0,1.19.54,1.19,1.19,0,.65-.53,1.18-1.19,1.19Z"/>
    <polygon class="cls-6" points="84.08 624.67 93.59 624.67 98.12 587.99 84.08 587.99 84.08 624.67"/>
    <path class="cls-8" d="m81.66,621.56h18.73s0,0,0,0c6.59,0,11.93,5.34,11.93,11.93v.39h-30.66s0-12.32,0-12.32Z"/>
    <polygon class="cls-6" points="171.73 624.67 181.24 624.67 185.76 587.99 171.73 587.99 171.73 624.67"/>
    <path class="cls-8" d="m169.31,621.56h18.73s0,0,0,0c6.59,0,11.93,5.34,11.93,11.93v.39h-30.66s0-12.32,0-12.32Z"/>
    <polygon class="cls-6" points="160.25 330 166.45 369.55 107.51 370.33 115.26 332.32 160.25 330"/>
    <path class="cls-8" d="m164.74,359.9l18.78,49.99,2.33,207.18h-15.9l-38.01-166.46-34.9,162.11h-15.51l10.86-182.28s-3.2-36.59,13.19-58.17l3.99-11.52,55.19-.85Z"/>
    <path class="cls-6" d="m84.21,398.87c6.2-1.69,9.86-8.09,8.17-14.29-.18-.66-.42-1.31-.71-1.92l25.08-81.76-18.45-3.66-22.94,80.14c-5.64,3.15-7.67,10.27-4.52,15.92,2.63,4.72,8.16,7.02,13.37,5.57h0Z"/>
    <path class="cls-9" d="m117.28,351.84c-.34,0-.69-.03-1.02-.1h0c-2.33-.47-4.07-2.43-4.25-4.8-.58-7.98-3.47-21.88-8.59-41.3-4.57-17.47,5.89-35.33,23.36-39.9,9.81-2.56,20.25-.44,28.27,5.76,6.99,5.35,11.48,13.32,12.45,22.07,2.54,22.39-2.25,44.87-4.43,53.49-.59,2.31-2.65,3.95-5.04,4l-40.64.78s-.08,0-.11,0Z"/>
    <path class="cls-6" d="m230.81,280.03c-.24.55-.44,1.11-.6,1.69l-50.86,17.28-9.83-8.59-14.9,13.14,15.92,16.89c2.64,2.8,6.82,3.53,10.25,1.77l54.43-27.8c5.35,3.28,12.35,1.61,15.64-3.75,3.28-5.35,1.61-12.35-3.75-15.64-5.35-3.28-12.35-1.61-15.64,3.75-.25.4-.47.82-.66,1.25h0Z"/>
    <path class="cls-9" d="m177.58,299.95l-18.54,16.2c-2.03,1.77-5.11,1.56-6.88-.46-.16-.18-.3-.37-.43-.57l-13.26-20.65c-4.89-5.66-4.27-14.2,1.39-19.09,5.64-4.87,14.16-4.27,19.06,1.34l18.62,15.86c2.05,1.75,2.29,4.82.55,6.87-.15.18-.32.35-.5.51h0Z"/>
    <path class="cls-9" d="m113.81,321.83l-22.91-9c-2.51-.98-3.74-3.81-2.75-6.32.09-.22.19-.44.31-.65l12.23-21.28c2.77-6.94,10.65-10.32,17.59-7.55,6.92,2.76,10.3,10.59,7.58,17.53l-5.51,23.84c-.61,2.62-3.22,4.26-5.85,3.65-.23-.05-.46-.12-.68-.21h0Z"/>
    <circle class="cls-6" cx="130.8" cy="234.73" r="24.92"/>
    <path class="cls-7" d="m389.48,636.54H1.18c-.66,0-1.19-.54-1.18-1.2,0-.65.53-1.18,1.18-1.18h388.29c.66,0,1.19.54,1.18,1.2,0,.65-.53,1.18-1.18,1.18Z"/>
    <path class="cls-8" d="m147.95,224.71c5.35-.03,10.7-.06,16.04-.09.38-3.64-1.24-7.27-3.61-10.07-2.49-2.69-5.33-5.04-8.45-6.98-3.07-2.11-6.25-4.26-9.89-4.99-3.06-.62-6.22-.19-9.3.24-4.1.57-8.19,1.14-12.29,1.71-4.5.63-9.2,1.33-12.85,4.03-4.94,3.65-6.83,10.03-8.41,15.96l-8.78,32.82,51.87,5.44c1.88.32,3.8.27,5.65-.16,1.89-.47,3.31-2.03,3.61-3.95.15-2.12-1.53-3.85-2.89-5.47-6.66-8.25-7.53-19.74-2.2-28.91l1.49.44Z"/>
  </g>
</svg>