<?xml version="1.0" encoding="UTF-8"?>
<svg id="Layer_2" data-name="Layer 2" xmlns="http://www.w3.org/2000/svg" viewBox="0 0 34.91 39.31">
  <defs>
    <style>
      .cls-1 {
        fill: #043429;
      }

      .cls-2 {
        fill: #fff;
      }

      .cls-3 {
        fill: #0b4f3d;
      }

      .cls-4 {
        fill: #1c725b;
      }
    </style>
  </defs>
  <g id="Layer_1-2" data-name="Layer 1">
    <g>
      <polygon class="cls-3" points="0 9.08 17.53 19.34 17.53 39.31 0 28.97 0 9.08"/>
      <polygon class="cls-1" points="34.91 9.08 17.53 19.34 17.53 39.31 34.91 28.97 34.91 9.08"/>
      <polygon class="cls-4" points="0 9.08 17.53 19.34 34.91 9.08 17.46 0 0 9.08"/>
      <polygon class="cls-2" points="9.4 4.19 12.53 7.4 8.87 7.4 8.87 24.44 17.53 29.18 26.19 24.44 26.19 14.23 17.53 19.34 13.45 16.95 26.19 9.52 30.51 11.87 30.51 27.37 17.53 34.49 4.4 27.23 4.4 6.84 9.4 4.19"/>
    </g>
  </g>
</svg>