<?xml version="1.0" encoding="utf-8"?>
<!-- Generator: Adobe Illustrator 27.7.0, SVG Export Plug-In . SVG Version: 6.00 Build 0)  -->
<svg version="1.1" id="Layer_1" xmlns="http://www.w3.org/2000/svg" xmlns:xlink="http://www.w3.org/1999/xlink" x="0px" y="0px"
	 viewBox="0 0 44 44" style="enable-background:new 0 0 44 44;" xml:space="preserve">
<style type="text/css">
	.st0{fill:#FFFFFF;}
	.st1{fill:#FF0000;}
</style>
<path class="st0" d="M22,0L22,0c12.2,0,22,9.8,22,22l0,0c0,12.2-9.8,22-22,22l0,0C9.8,44,0,34.2,0,22l0,0C0,9.8,9.8,0,22,0z"/>
<g>
	<path class="st0" d="M11.5,12.2l0.1,0l0,0c0.1-0.1,0.2-0.1,0.4-0.2l0,0l0,0l0,0c0.1-0.1,0.2-0.2,0.3-0.2l0,0l0,0l0,0l0,0l0,0
		c0.1-0.1,0.2-0.2,0.2-0.3c0.1-0.2,0.2-0.4,0.2-0.6c0-0.2,0-0.4,0-0.6c0-0.2-0.1-0.4-0.3-0.5c-0.1-0.2-0.2-0.3-0.4-0.4
		c-0.1-0.1-0.2-0.1-0.4-0.2c-0.3-0.1-0.5-0.1-0.8,0c-0.1,0.1-0.2,0.1-0.4,0.2c-0.2,0.1-0.4,0.3-0.5,0.5l0,0c0.1-0.1,0.2-0.2,0.2-0.3
		l-0.1,0.1c0.1-0.1,0.2-0.2,0.3-0.2l-0.1,0.1c0.1-0.1,0.2-0.1,0.4-0.2l-0.1,0c-0.2,0-0.4,0.1-0.5,0.3C10.1,9.7,9.9,9.9,9.8,10
		c-0.1,0.2-0.2,0.4-0.2,0.6c0,0.2,0,0.4,0,0.6c0.1,0.1,0.1,0.2,0.2,0.4c0.1,0.2,0.3,0.4,0.5,0.5c0.1,0.1,0.2,0.1,0.4,0.2
		C11,12.3,11.3,12.3,11.5,12.2z"/>
	<path class="st0" d="M12.6,11.5c0.1-0.1,0.2-0.2,0.3-0.3C12.7,11.3,12.6,11.4,12.6,11.5l0.1-0.1c-0.1,0.1-0.2,0.1-0.4,0.2l0.1,0
		c-0.1,0-0.3,0-0.4,0.1C12.2,11.6,12.4,11.6,12.6,11.5c0.2-0.1,0.4-0.2,0.6-0.3c0.2-0.1,0.3-0.2,0.5-0.3c0.2-0.1,0.3-0.2,0.4-0.4
		c0.1-0.1,0.2-0.3,0.3-0.5c0.1-0.2,0.1-0.4,0-0.6c0-0.2-0.1-0.4-0.2-0.6c-0.1-0.1-0.2-0.2-0.2-0.3c-0.2-0.2-0.4-0.3-0.7-0.4
		c-0.1,0-0.3,0-0.4-0.1c-0.3,0-0.5,0.1-0.8,0.2c-0.2,0.1-0.5,0.3-0.7,0.4c0.1-0.1,0.2-0.1,0.4-0.2l-0.2,0.1c0.1,0,0.3,0,0.4-0.1l0,0
		l-0.2,0l-0.2,0c-0.1,0-0.3,0.1-0.4,0.2c-0.2,0.1-0.3,0.2-0.4,0.3l-0.2,0.3c-0.1,0.1-0.2,0.3-0.3,0.5C10,10.1,10,10.3,10,10.5
		c0,0.2,0,0.4,0.1,0.6c0.1,0.2,0.2,0.3,0.3,0.5c0.1,0.1,0.2,0.2,0.3,0.2c0.2,0.1,0.5,0.2,0.8,0.2c0.1,0,0.3,0,0.4-0.1
		C12.2,11.8,12.4,11.7,12.6,11.5z"/>
	<path class="st0" d="M12.3,11.4c1.9,0,1.9-3,0-3C10.3,8.4,10.3,11.4,12.3,11.4z"/>
	<path class="st0" d="M12.2,11.4c1.9,0,1.9-3,0-3C10.3,8.4,10.3,11.4,12.2,11.4z"/>
	<path class="st0" d="M11.9,11.6c1.9,0,1.9-3,0-3C10,8.6,10,11.6,11.9,11.6z"/>
	<path class="st0" d="M12,11.5c1.9,0,1.9-3,0-3C10,8.5,10,11.5,12,11.5z"/>
	<path class="st0" d="M11.6,11.7c1.9,0,1.9-3,0-3C9.6,8.7,9.6,11.7,11.6,11.7z"/>
	<path class="st0" d="M11.4,11.9c1.9,0,1.9-3,0-3C9.4,8.9,9.4,11.9,11.4,11.9z"/>
	<path class="st0" d="M11.2,12c1.9,0,1.9-3,0-3C9.3,9,9.3,12,11.2,12z"/>
	<path class="st0" d="M11.2,11.9c1.9,0,1.9-3,0-3C9.3,8.9,9.3,11.9,11.2,11.9z"/>
	<path class="st0" d="M10.9,12.1c1.9,0,1.9-3,0-3C9,9.1,9,12.1,10.9,12.1z"/>
	<path class="st0" d="M10.6,12.3c1.9,0,1.9-3,0-3C8.6,9.3,8.6,12.3,10.6,12.3z"/>
	<path class="st0" d="M10.2,12.5c1.9,0,1.9-3,0-3C8.3,9.5,8.3,12.5,10.2,12.5z"/>
	<path class="st1" d="M12.9,11.2c1.9,0,1.9-3,0-3C11,8.2,11,11.2,12.9,11.2z"/>
	<path class="st1" d="M13.4,10.8c1.9,0,1.9-3,0-3C11.5,7.8,11.5,10.8,13.4,10.8z"/>
	<path class="st1" d="M13.7,10.7c1.9,0,1.9-3,0-3C11.8,7.7,11.8,10.7,13.7,10.7z"/>
	<path class="st0" d="M13.6,10.7l0-0.1c-0.1,0.1-0.1,0.2-0.2,0.4l0.1-0.1c-0.1,0.1-0.2,0.2-0.2,0.3l0.2-0.2
		c-0.1,0.1-0.2,0.2-0.3,0.2l0.2-0.1c0.2-0.1,0.3-0.2,0.4-0.4c0.1-0.1,0.2-0.3,0.3-0.5c0.1-0.2,0.1-0.4,0-0.6C14,9.3,14,9.1,13.9,9
		c-0.1-0.1-0.2-0.2-0.2-0.3c-0.2-0.2-0.4-0.3-0.7-0.4c-0.1,0-0.3,0-0.4-0.1c-0.3,0-0.5,0.1-0.8,0.2l-0.2,0.1
		c-0.1,0.1-0.3,0.2-0.4,0.3l-0.1,0.1L11.2,9c-0.1,0.1-0.2,0.2-0.2,0.3l0,0l0,0l0,0c-0.1,0.1-0.1,0.3-0.2,0.4l0,0.1
		c-0.1,0.2-0.1,0.4,0,0.6c0,0.2,0.1,0.4,0.2,0.6c0.1,0.2,0.2,0.3,0.4,0.4c0.1,0.1,0.3,0.2,0.5,0.3c0.1,0,0.3,0,0.4,0.1
		c0.3,0,0.5-0.1,0.8-0.2c0.1-0.1,0.2-0.2,0.3-0.2C13.4,11.1,13.5,10.9,13.6,10.7z"/>
	<path class="st0" d="M13.3,11.1c0.7-0.4,1.3-0.9,2-1.2C15.2,9.9,15,10,14.9,10l0.1-0.1c0.2,0,0.4-0.1,0.5-0.3
		c0.2-0.1,0.3-0.2,0.4-0.4c0.1-0.2,0.2-0.4,0.2-0.6c0-0.2,0-0.4,0-0.6c-0.1-0.4-0.3-0.7-0.7-0.9c-0.3-0.2-0.8-0.3-1.2-0.2
		c-0.5,0.2-1,0.4-1.4,0.7c-0.4,0.2-0.7,0.5-1.1,0.7c-0.3,0.2-0.6,0.5-0.7,0.9C11,9.6,11,9.8,11,10c0,0.2,0.1,0.4,0.2,0.6
		c0.2,0.3,0.5,0.6,0.9,0.7C12.5,11.3,12.9,11.3,13.3,11.1z"/>
	<path class="st0" d="M13.1,11.2c0.3-0.2,0.6-0.4,0.9-0.5c-0.5-0.9-1-1.7-1.5-2.6c-0.6,0.4-1.1,0.7-1.7,1.1c0.8,0.4,1.5,0.9,2.3,1.3
		l0,0c0,0.1,0,0.3-0.1,0.4l0-0.1c-0.1,0.1-0.1,0.2-0.2,0.4l0-0.1c-0.1,0.1-0.2,0.2-0.2,0.3l0.1-0.1c-0.1,0.1-0.2,0.2-0.3,0.2l0,0
		c0.2-0.1,0.3-0.2,0.4-0.4c0.1-0.1,0.2-0.3,0.3-0.5c0.1-0.2,0.1-0.4,0-0.6c0-0.2-0.1-0.4-0.2-0.6c-0.2-0.3-0.5-0.6-0.9-0.7
		c-0.1,0-0.3,0-0.4-0.1c-0.3,0-0.5,0.1-0.8,0.2l0,0c-0.1,0.1-0.2,0.2-0.3,0.2c-0.1,0.1-0.2,0.3-0.3,0.4l0,0c0,0.1-0.1,0.3-0.2,0.4
		l0,0c0,0.1,0,0.3-0.1,0.4c0,0.3,0.1,0.5,0.2,0.8c0.1,0.2,0.3,0.4,0.5,0.5c0.4,0.3,1.1,0.3,1.5,0c0.6-0.4,1.1-0.7,1.7-1.1
		c0.3-0.2,0.6-0.5,0.7-0.9c0.1-0.2,0.1-0.4,0-0.6c0-0.2-0.1-0.4-0.2-0.6C14.3,8.3,14,8,13.6,7.9c-0.4-0.1-0.8,0-1.2,0.2
		c-0.3,0.2-0.6,0.4-0.9,0.5c-0.3,0.2-0.6,0.5-0.7,0.9c-0.1,0.2-0.1,0.4,0,0.6c0,0.2,0.1,0.4,0.2,0.6c0.2,0.3,0.5,0.6,0.9,0.7
		C12.3,11.4,12.7,11.4,13.1,11.2z"/>
	<path class="st0" d="M12.4,11.4c1.9,0,1.9-3,0-3C10.4,8.4,10.4,11.4,12.4,11.4z"/>
	<path class="st0" d="M12.4,11.3c1.9,0,1.9-3,0-3C10.5,8.3,10.5,11.3,12.4,11.3z"/>
	<path class="st0" d="M16.3,6.1L8,10.3c-1.7,0.9-1.9,3.2-0.5,4.4l5.6,4.6c1.5,1.2,3.7,0.6,4.2-1.3L20,9.2C20.7,6.9,18.4,5,16.3,6.1z
		"/>
	<polygon class="st0" points="37.9,26.3 18.6,25.3 22.7,38.2 	"/>
	<polygon class="st0" points="27.9,20.2 12,31 23,38.8 	"/>
	<path class="st0" d="M36.1,31H8.9C8.4,31,8,30.6,8,30.1V10.9C8,10.4,8.4,10,8.9,10h27.1c0.5,0,0.9,0.4,0.9,0.9v19.1
		C37,30.6,36.6,31,36.1,31z"/>
	<path d="M30.9,7.5C26,4.9,22.8,3.3,22,2.9c-1.6,0.8-6.8,3.6-7.6,4l-0.2,0.1c0.8,0.8,2.3,2.3,3,3.1c-0.9,0-2.7,0-3.6,0
		c0,4.1,0,12.5,0,16.6c2.1,1.1,6.3,3.5,8.4,4.6c1.3-0.7,6.3-3.4,8.4-4.6c0-1.8,0-9.5,0-9.9c0,0-1.9,1.1-4.2,2.5
		c-2.3,1.4-4.2,2.5-4.2,2.5l-3.9-2.3c0.5-0.3,10.2-6,12.4-7.3c0.8,0.4,4,2.2,4.2,2.3c0,3.8,0,11.3,0,15.1
		c-2.3,1.2-12.1,6.7-12.7,6.9L9.3,29.4c0,0.7,0-16.7,0-19.9c0.4-0.2,2.2-1.2,2.3-1.2C12,8,6.3,11,5,11.7v19.4
		c3.1,1.8,16.3,9.6,17,10.1c0,0,1-0.6,8.5-5l8.5-5V11.7L30.9,7.5z"/>
</g>
</svg>
